{
    "asset": {
        "generator": "Khronos glTF Blender I/O v3.5.30",
        "version": "2.0"
    },
    "extensionsUsed": [
        "GODOT_single_root",
        "KHR_materials_clearcoat",
        "OMI_physics_shape",
        "OMI_physics_body",
        "OMI_seat",
        "OMI_vehicle_body",
        "OMI_vehicle_wheel"
    ],
    "extensions": {
        "OMI_physics_shape": {
            "shapes": [
                {
                    "type": "box",
                    "box": { "size": [0.65, 0.65, 0.65] }
                },
                {
                    "type": "box",
                    "box": { "size": [1.4, 1.3, 2.2] }
                },
                {
                    "type": "box",
                    "box": { "size": [1.4, 0.6, 1.5] }
                }
            ]
        },
        "OMI_vehicle_wheel": {
            "wheels": [
                {
                    "radius": 0.35,
                    "maxSteeringAngle": 0.5
                },
                {
                    "radius": 0.35,
                    "maxPropulsionForce": 2000
                }
            ]
        }
    },
    "scene": 0,
    "scenes": [ { "nodes": [0] } ],
    "nodes": [
        {
            "children": [1, 2, 3, 4, 5, 6, 7, 9, 11, 13, 15],
            "name": "SimpleCar",
            "extensions": {
                "OMI_physics_body": {
                    "motion": {
                        "type": "dynamic",
                        "mass": 1000
                    }
                },
                "OMI_vehicle_body": {
                    "pilotSeat": 6
                }
            }
        },
        {
            "name": "ColliderBack",
            "translation": [0, 0.7, -0.65],
            "extensions": {
                "OMI_physics_body": {
                    "collider": {
                        "shape": 1
                    }
                }
            }
        },
        {
            "name": "ColliderFront",
            "translation": [0, 0.35, 1.2],
            "extensions": {
                "OMI_physics_body": {
                    "collider": {
                        "shape": 2
                    }
                }
            }
        },
        {
            "name": "SeatBackLeft",
            "translation": [0.4, 0.4, -0.8],
            "extensions": {
                "OMI_physics_body": {
                    "trigger": {
                        "shape": 0
                    }
                },
                "OMI_seat": {
                    "back": [0, 0, -0.3],
                    "foot": [0, -0.5, 0.3],
                    "knee": [0, 0, 0.3]
                }
            }
        },
        {
            "name": "SeatBackRight",
            "translation": [-0.4, 0.4, -0.8],
            "extensions": {
                "OMI_physics_body": {
                    "trigger": {
                        "shape": 0
                    }
                },
                "OMI_seat": {
                    "back": [0, 0, -0.3],
                    "foot": [0, -0.5, 0.3],
                    "knee": [0, 0, 0.3]
                }
            }
        },
        {
            "name": "SeatPassenger",
            "translation": [-0.4, 0.4, 0],
            "extensions": {
                "OMI_physics_body": {
                    "trigger": {
                        "shape": 0
                    }
                },
                "OMI_seat": {
                    "back": [0, 0, -0.3],
                    "foot": [0, -0.5, 0.3],
                    "knee": [0, 0, 0.3]
                }
            }
        },
        {
            "name": "SeatPilot",
            "translation": [0.4, 0.4, 0],
            "extensions": {
                "OMI_physics_body": {
                    "trigger": {
                        "shape": 0
                    }
                },
                "OMI_seat": {
                    "back": [0, 0, -0.3],
                    "foot": [0, -0.5, 0.3],
                    "knee": [0, 0, 0.3]
                }
            }
        },
        {
            "mesh": 0,
            "name": "SimpleCarMesh"
        },
        {
            "mesh": 1,
            "name": "WheelBackLeftMesh"
        },
        {
            "children": [8],
            "name": "WheelBackLeft",
            "translation": [0.8, 0, -1.15],
            "extensions": {
                "OMI_vehicle_wheel": {
                    "wheel": 1
                }
            }
        },
        {
            "mesh": 1,
            "name": "WheelBackRightMesh"
        },
        {
            "children": [10],
            "name": "WheelBackRight",
            "translation": [-0.8, 0, -1.15],
            "extensions": {
                "OMI_vehicle_wheel": {
                    "wheel": 1
                }
            }
        },
        {
            "mesh": 1,
            "name": "WheelFrontLeftMesh"
        },
        {
            "children": [12],
            "name": "WheelFrontLeft",
            "translation": [0.8, 0, 1.5],
            "extensions": {
                "OMI_vehicle_wheel": {
                    "wheel": 0
                }
            }
        },
        {
            "mesh": 1,
            "name": "WheelFrontRightMesh"
        },
        {
            "children": [14],
            "name": "WheelFrontRight",
            "translation": [-0.8, 0, 1.5],
            "extensions": {
                "OMI_vehicle_wheel": {
                    "wheel": 0
                }
            }
        }
    ],
    "materials": [
        {
            "extensions": {
                "KHR_materials_clearcoat": {
                    "clearcoatFactor": 0.8,
                    "clearcoatRoughnessFactor": 0.05
                }
            },
            "name": "car_red",
            "pbrMetallicRoughness": {
                "baseColorFactor": [
                    0.8,
                    0.016,
                    0.016,
                    1
                ],
                "metallicFactor": 0,
                "roughnessFactor": 0.6
            }
        },
        {
            "name": "car_windows",
            "pbrMetallicRoughness": {
                "baseColorFactor": [
                    0.36724644899368286,
                    0.36724644899368286,
                    0.36724644899368286,
                    1
                ],
                "metallicFactor": 0.3,
                "roughnessFactor": 0.1
            }
        },
        {
            "name": "chrome",
            "pbrMetallicRoughness": {
                "baseColorFactor": [
                    0.6,
                    0.6,
                    0.6,
                    1
                ],
                "roughnessFactor": 0.35
            }
        },
        {
            "emissiveFactor": [
                1,
                0.8618969917297363,
                0.6978915929794312
            ],
            "name": "headlights",
            "pbrMetallicRoughness": {
                "baseColorFactor": [
                    0.8,
                    0.8,
                    0.8,
                    1
                ],
                "metallicFactor": 0,
                "roughnessFactor": 0.5
            }
        },
        {
            "name": "tire",
            "pbrMetallicRoughness": {
                "baseColorFactor": [
                    0.05354800075292587,
                    0.05354800075292587,
                    0.05354800075292587,
                    1
                ],
                "metallicFactor": 0,
                "roughnessFactor": 0.8
            }
        }
    ],
    "meshes": [
        {
            "name": "SimpleCarMesh",
            "primitives": [
                {
                    "attributes": {
                        "POSITION": 0,
                        "NORMAL": 1
                    },
                    "indices": 2,
                    "material": 0
                },
                {
                    "attributes": {
                        "POSITION": 3,
                        "NORMAL": 4
                    },
                    "indices": 5,
                    "material": 1
                },
                {
                    "attributes": {
                        "POSITION": 6,
                        "NORMAL": 7
                    },
                    "indices": 8,
                    "material": 2
                },
                {
                    "attributes": {
                        "POSITION": 9,
                        "NORMAL": 10
                    },
                    "indices": 11,
                    "material": 3
                }
            ]
        },
        {
            "name": "WheelMesh",
            "primitives": [
                {
                    "attributes": {
                        "POSITION": 12,
                        "NORMAL": 13
                    },
                    "indices": 14,
                    "material": 4
                },
                {
                    "attributes": {
                        "POSITION": 15,
                        "NORMAL": 16
                    },
                    "indices": 17,
                    "material": 2
                }
            ]
        }
    ],
    "accessors": [
        {
            "bufferView": 0,
            "componentType": 5126,
            "count": 157,
            "max": [
                0.9146543741226196,
                1.3307487964630127,
                1.9688242673873901
            ],
            "min": [
                -0.916010856628418,
                -0.15977101027965546,
                -1.7800047397613525
            ],
            "type": "VEC3"
        },
        {
            "bufferView": 1,
            "componentType": 5126,
            "count": 157,
            "type": "VEC3"
        },
        {
            "bufferView": 2,
            "componentType": 5123,
            "count": 324,
            "type": "SCALAR"
        },
        {
            "bufferView": 3,
            "componentType": 5126,
            "count": 24,
            "max": [
                0.7027391195297241,
                1.3307487964630127,
                0.5760020017623901
            ],
            "min": [
                -0.7040956020355225,
                0.6703968048095703,
                -1.7800047397613525
            ],
            "type": "VEC3"
        },
        {
            "bufferView": 4,
            "componentType": 5126,
            "count": 24,
            "type": "VEC3"
        },
        {
            "bufferView": 5,
            "componentType": 5123,
            "count": 48,
            "type": "SCALAR"
        },
        {
            "bufferView": 6,
            "componentType": 5126,
            "count": 22,
            "max": [
                0.7027391195297241,
                0.5432487726211548,
                1.9688242673873901
            ],
            "min": [
                -0.7040956020355225,
                -0.15977101027965546,
                -1.566460371017456
            ],
            "type": "VEC3"
        },
        {
            "bufferView": 7,
            "componentType": 5126,
            "count": 22,
            "type": "VEC3"
        },
        {
            "bufferView": 8,
            "componentType": 5123,
            "count": 36,
            "type": "SCALAR"
        },
        {
            "bufferView": 9,
            "componentType": 5126,
            "count": 8,
            "max": [
                0.726665198802948,
                0.09771557152271271,
                1.9238450527191162
            ],
            "min": [
                -0.7280216217041016,
                -0.00012339651584625244,
                1.8910331726074219
            ],
            "type": "VEC3"
        },
        {
            "bufferView": 10,
            "componentType": 5126,
            "count": 8,
            "type": "VEC3"
        },
        {
            "bufferView": 11,
            "componentType": 5123,
            "count": 12,
            "type": "SCALAR"
        },
        {
            "bufferView": 12,
            "componentType": 5126,
            "count": 120,
            "max": [
                0.09073548763990402,
                0.29643508791923523,
                0.29643508791923523
            ],
            "min": [
                -0.09073548763990402,
                -0.29643508791923523,
                -0.29643508791923523
            ],
            "type": "VEC3"
        },
        {
            "bufferView": 13,
            "componentType": 5126,
            "count": 120,
            "type": "VEC3"
        },
        {
            "bufferView": 14,
            "componentType": 5123,
            "count": 648,
            "type": "SCALAR"
        },
        {
            "bufferView": 15,
            "componentType": 5126,
            "count": 26,
            "max": [
                0.049634311348199844,
                0.17193351686000824,
                0.17193353176116943
            ],
            "min": [
                -0.049634311348199844,
                -0.17193351686000824,
                -0.17193347215652466
            ],
            "type": "VEC3"
        },
        {
            "bufferView": 16,
            "componentType": 5126,
            "count": 26,
            "type": "VEC3"
        },
        {
            "bufferView": 17,
            "componentType": 5123,
            "count": 72,
            "type": "SCALAR"
        }
    ],
    "bufferViews": [
        {
            "buffer": 0,
            "byteLength": 1884,
            "byteOffset": 0,
            "target": 34962
        },
        {
            "buffer": 0,
            "byteLength": 1884,
            "byteOffset": 1884,
            "target": 34962
        },
        {
            "buffer": 0,
            "byteLength": 648,
            "byteOffset": 3768,
            "target": 34963
        },
        {
            "buffer": 0,
            "byteLength": 288,
            "byteOffset": 4416,
            "target": 34962
        },
        {
            "buffer": 0,
            "byteLength": 288,
            "byteOffset": 4704,
            "target": 34962
        },
        {
            "buffer": 0,
            "byteLength": 96,
            "byteOffset": 4992,
            "target": 34963
        },
        {
            "buffer": 0,
            "byteLength": 264,
            "byteOffset": 5088,
            "target": 34962
        },
        {
            "buffer": 0,
            "byteLength": 264,
            "byteOffset": 5352,
            "target": 34962
        },
        {
            "buffer": 0,
            "byteLength": 72,
            "byteOffset": 5616,
            "target": 34963
        },
        {
            "buffer": 0,
            "byteLength": 96,
            "byteOffset": 5688,
            "target": 34962
        },
        {
            "buffer": 0,
            "byteLength": 96,
            "byteOffset": 5784,
            "target": 34962
        },
        {
            "buffer": 0,
            "byteLength": 24,
            "byteOffset": 5880,
            "target": 34963
        },
        {
            "buffer": 0,
            "byteLength": 1440,
            "byteOffset": 5904,
            "target": 34962
        },
        {
            "buffer": 0,
            "byteLength": 1440,
            "byteOffset": 7344,
            "target": 34962
        },
        {
            "buffer": 0,
            "byteLength": 1296,
            "byteOffset": 8784,
            "target": 34963
        },
        {
            "buffer": 0,
            "byteLength": 312,
            "byteOffset": 10080,
            "target": 34962
        },
        {
            "buffer": 0,
            "byteLength": 312,
            "byteOffset": 10392,
            "target": 34962
        },
        {
            "buffer": 0,
            "byteLength": 144,
            "byteOffset": 10704,
            "target": 34963
        }
    ],
    "buffers": [
        {
            "byteLength": 10848,
            "uri": "data:application/octet-stream;base64,"
        }
    ]
}
