{
    "accessors": [
        {
            "bufferView": 0,
            "byteOffset": 0,
            "componentType": 5126,
            "count": 24,
            "max": [0.5, 0.5, 0.5],
            "min": [-0.5, -0.5, -0.5],
            "normalized": false,
            "type": "VEC3"
        },
        {
            "bufferView": 1,
            "byteOffset": 0,
            "componentType": 5126,
            "count": 24,
            "max": [1.0, 0.0, 1.0, 1.0],
            "min": [-1.0, -0.000015259254723787308, -1.0, 1.0],
            "normalized": false,
            "type": "VEC4"
        },
        {
            "bufferView": 2,
            "byteOffset": 0,
            "componentType": 5126,
            "count": 24,
            "max": [1.0, 1.0, 1.0],
            "min": [-1.0, -1.0, -1.0],
            "normalized": false,
            "type": "VEC3"
        },
        {
            "bufferView": 3,
            "byteOffset": 0,
            "componentType": 5126,
            "count": 24,
            "max": [1.0, 1.0],
            "min": [0.0, 0.0],
            "normalized": false,
            "type": "VEC2"
        },
        {
            "bufferView": 4,
            "byteOffset": 0,
            "componentType": 5123,
            "count": 36,
            "max": [23.0],
            "min": [0.0],
            "normalized": false,
            "type": "SCALAR"
        }
    ],
    "asset": {
        "version": "2.0"
    },
    "bufferViews": [
        { "buffer": 0, "byteLength": 288, "byteOffset": 0, "byteStride": 12, "target": 34962 },
        { "buffer": 0, "byteLength": 384, "byteOffset": 288, "byteStride": 16, "target": 34962 },
        { "buffer": 0, "byteLength": 288, "byteOffset": 672, "byteStride": 12, "target": 34962 },
        { "buffer": 0, "byteLength": 192, "byteOffset": 960, "byteStride": 8, "target": 34962 },
        { "buffer": 0, "byteLength": 72, "byteOffset": 1152, "target": 34963 }
    ],
    "buffers": [{ "byteLength": 1224, "uri": "cube_mesh_data.bin" }],
    "extensions": {
        "KHR_lights_punctual": {
            "lights": [
                {
                    "color": [1, 0.05, 0.05],
                    "intensity": 0.5,
                    "type": "directional"
                }
            ]
        },
        "OMI_environment_sky": {
            "skies": [
                {
                    "gradient": {
                        "bottomColor": [0.01, 0.01, 0.01],
                        "horizonColor": [0.01, 0.01, 0.01],
                        "sunAngleMax": 0.25,
                        "sunCurve": 4,
                        "topColor": [0.01, 0.01, 0.01]
                    },
                    "type": "gradient"
                }
            ]
        }
    },
    "extensionsUsed": ["KHR_lights_punctual", "OMI_environment_sky"],
    "materials": [{}],
    "meshes": [
        {
            "primitives": [
                {
                    "attributes": { "NORMAL": 2, "POSITION": 0, "TANGENT": 1, "TEXCOORD_0": 3 },
                    "indices": 4,
                    "material": 0,
                    "mode": 4
                }
            ]
        }
    ],
    "nodes": [
        { "children": [1, 2], "name": "SpaceBlackGradient" },
        { "mesh": 0, "name": "Box" },
        {
            "extensions": { "KHR_lights_punctual": { "light": 0 } },
            "name": "SunDimRed",
            "rotation": [-0.12941067816757, 0.836515365063497, 0.482963555466784, 0.224145320004181]
        }
    ],
    "scene": 0,
    "scenes": [{ "nodes": [0] }]
}
