{
    "asset": {
        "generator": "Khronos glTF Blender I/O v3.4.50 (manually modified with seat data)",
        "version": "2.0"
    },
    "extensionsUsed": [
        "OMI_seat"
    ],
    "nodes": [
        {
            "children": [1],
            "name": "ReclinerChairFull",
            "extensions": {
                "OMI_seat": {
                    "back": [0, 0.33, -0.247],
                    "foot": [0, -0.17, 0.8],
                    "knee": [0, 0.33, 0.3],
                    "angle": 2.0943951
                }
            }
        },
        {
            "mesh": 0,
            "name": "ReclinerChairFullMesh"
        }
    ],
    "scene": 0,
    "scenes": [{ "nodes": [0] }],
    "meshes": [
        {
            "name": "ReclinerChairFullMesh",
            "primitives": [
                {
                    "attributes": {
                        "POSITION": 0,
                        "TEXCOORD_0": 1,
                        "NORMAL": 2
                    },
                    "indices": 3
                }
            ]
        }
    ],
    "accessors": [
        {
            "bufferView": 0,
            "componentType": 5126,
            "count": 184,
            "max": [
                0.30000001192092896,
                0.9351986050605774,
                0.6531219482421875
            ],
            "min": [
                -0.30000001192092896,
                -0.25,
                -0.6483013033866882
            ],
            "type": "VEC3"
        },
        {
            "bufferView": 1,
            "componentType": 5126,
            "count": 184,
            "type": "VEC2"
        },
        {
            "bufferView": 2,
            "componentType": 5126,
            "count": 184,
            "type": "VEC3"
        },
        {
            "bufferView": 3,
            "componentType": 5123,
            "count": 276,
            "type": "SCALAR"
        }
    ],
    "bufferViews": [
        {
            "buffer": 0,
            "byteLength": 2208,
            "byteOffset": 0,
            "target": 34962
        },
        {
            "buffer": 0,
            "byteLength": 1472,
            "byteOffset": 2208,
            "target": 34962
        },
        {
            "buffer": 0,
            "byteLength": 2208,
            "byteOffset": 3680,
            "target": 34962
        },
        {
            "buffer": 0,
            "byteLength": 552,
            "byteOffset": 5888,
            "target": 34963
        }
    ],
    "buffers": [
        {
            "byteLength": 6440,
            "uri": "data:application/octet-stream;base64,"
        }
    ]
}
