{
    "asset": {
        "generator": "Khronos glTF Blender I/O v3.4.50 (manually modified with seat data)",
        "version": "2.0"
    },
    "extensionsUsed": [
        "OMI_seat"
    ],
    "scene": 0,
    "scenes": [
        {
            "nodes": [1]
        }
    ],
    "nodes": [
        {
            "mesh": 0,
            "name": "SimpleChairMesh"
        },
        {
            "children": [
                0
            ],
            "name": "SimpleChairPosZ",
            "extensions": {
                "OMI_seat": {
                    "back": [0, 0.33, -0.24],
                    "foot": [0, -0.25, 0.3],
                    "knee": [0, 0.33, 0.3]
                }
            }
        }
    ],
    "meshes": [
        {
            "name": "SimpleChairMesh",
            "primitives": [
                {
                    "attributes": {
                        "POSITION": 0,
                        "TEXCOORD_0": 1,
                        "NORMAL": 2
                    },
                    "indices": 3
                }
            ]
        }
    ],
    "accessors": [
        {
            "bufferView": 0,
            "componentType": 5126,
            "count": 144,
            "max": [
                0.30000001192092896,
                1.03000009059906,
                0.30000001192092896
            ],
            "min": [
                -0.30000001192092896,
                -0.25,
                -0.30000001192092896
            ],
            "type": "VEC3"
        },
        {
            "bufferView": 1,
            "componentType": 5126,
            "count": 144,
            "type": "VEC2"
        },
        {
            "bufferView": 2,
            "componentType": 5126,
            "count": 144,
            "type": "VEC3"
        },
        {
            "bufferView": 3,
            "componentType": 5123,
            "count": 216,
            "type": "SCALAR"
        }
    ],
    "bufferViews": [
        {
            "buffer": 0,
            "byteLength": 1728,
            "byteOffset": 0,
            "target": 34962
        },
        {
            "buffer": 0,
            "byteLength": 1152,
            "byteOffset": 1728,
            "target": 34962
        },
        {
            "buffer": 0,
            "byteLength": 1728,
            "byteOffset": 2880,
            "target": 34962
        },
        {
            "buffer": 0,
            "byteLength": 432,
            "byteOffset": 4608,
            "target": 34963
        }
    ],
    "buffers": [
        {
            "byteLength": 5040,
            "uri": "data:application/octet-stream;base64,"
        }
    ]
}
