{
    "asset": {
        "generator": "Khronos glTF Blender I/O v3.4.50 (manually modified with seat data)",
        "version": "2.0"
    },
    "extensionsUsed": [
        "OMI_seat"
    ],
    "scene": 0,
    "scenes": [
        {
            "nodes": [1]
        }
    ],
    "nodes": [
        {
            "mesh": 0,
            "name": "SimpleChairMesh"
        },
        {
            "children": [
                0
            ],
            "name": "SimpleChairWhat",
            "extensions": {
                "OMI_seat": {
                    "back": [0.11, 0.368, -0.139],
                    "foot": [-0.032, -0.338, 0.194],
                    "knee": [0.344, 0.098, 0.266]
                }
            }
        }
    ],
    "meshes": [
        {
            "name": "SimpleChairMesh",
            "primitives": [
                {
                    "attributes": {
                        "POSITION": 0,
                        "TEXCOORD_0": 1,
                        "NORMAL": 2
                    },
                    "indices": 3
                }
            ]
        }
    ],
    "accessors": [
        {
            "bufferView": 0,
            "componentType": 5126,
            "count": 144,
            "max": [
                0.7213316559791565,
                1.0307531356811523,
                0.46110567450523376
            ],
            "min": [
                -0.4797835350036621,
                -0.467403769493103,
                -0.45110565423965454
            ],
            "type": "VEC3"
        },
        {
            "bufferView": 1,
            "componentType": 5126,
            "count": 144,
            "type": "VEC2"
        },
        {
            "bufferView": 2,
            "componentType": 5126,
            "count": 144,
            "type": "VEC3"
        },
        {
            "bufferView": 3,
            "componentType": 5123,
            "count": 216,
            "type": "SCALAR"
        }
    ],
    "bufferViews": [
        {
            "buffer": 0,
            "byteLength": 1728,
            "byteOffset": 0,
            "target": 34962
        },
        {
            "buffer": 0,
            "byteLength": 1152,
            "byteOffset": 1728,
            "target": 34962
        },
        {
            "buffer": 0,
            "byteLength": 1728,
            "byteOffset": 2880,
            "target": 34962
        },
        {
            "buffer": 0,
            "byteLength": 432,
            "byteOffset": 4608,
            "target": 34963
        }
    ],
    "buffers": [
        {
            "byteLength": 5040,
            "uri": "data:application/octet-stream;base64,"
        }
    ]
}
